<?xml version="1.0" encoding="UTF-8" standalone="no"?>
<svg
   xmlns:dc="http://purl.org/dc/elements/1.1/"
   xmlns:cc="http://creativecommons.org/ns#"
   xmlns:rdf="http://www.w3.org/1999/02/22-rdf-syntax-ns#"
   xmlns:svg="http://www.w3.org/2000/svg"
   xmlns="http://www.w3.org/2000/svg"
   xmlns:sodipodi="http://sodipodi.sourceforge.net/DTD/sodipodi-0.dtd"
   xmlns:inkscape="http://www.inkscape.org/namespaces/inkscape"
   version="1.0"
   width="97.832092"
   height="98"
   viewBox="0 0 978.32092 980"
   preserveAspectRatio="xMidYMid meet"
   id="svg66"
   sodipodi:docname="popup_notes128.svg"
   inkscape:export-filename="C:\Users\1gour\Downloads\popup_notes128.png"
   inkscape:export-xdpi="96"
   inkscape:export-ydpi="96"
   inkscape:version="0.92.2 (5c3e80d, 2017-08-06)">
  <metadata
     id="metadata72">
    <rdf:RDF>
      <cc:Work
         rdf:about="">
        <dc:format>image/svg+xml</dc:format>
        <dc:type
           rdf:resource="http://purl.org/dc/dcmitype/StillImage" />
      </cc:Work>
    </rdf:RDF>
  </metadata>
  <defs
     id="defs70" />
  <sodipodi:namedview
     pagecolor="#ffffff"
     bordercolor="#666666"
     borderopacity="1"
     objecttolerance="10"
     gridtolerance="10"
     guidetolerance="10"
     inkscape:pageopacity="0"
     inkscape:pageshadow="2"
     inkscape:window-width="1920"
     inkscape:window-height="986"
     id="namedview68"
     showgrid="false"
     inkscape:zoom="1.84375"
     inkscape:cx="49"
     inkscape:cy="49"
     inkscape:window-x="-11"
     inkscape:window-y="-11"
     inkscape:window-maximized="1"
     inkscape:current-layer="svg66" />
  <g
     id="layerbg1"
     inkscape:export-xdpi="125.6"
     inkscape:export-ydpi="125.6"
     style="fill:#fbfbd4;stroke:none"
     transform="translate(-150,-150)">
    <path
       d="m 275,1113 c -44,-23 -84,-63 -106,-105 -17,-33 -18,-59 -16,-300 l 2,-263 h 485 485 l 2,263 c 3,291 0,304 -64,363 -63,59 -63,59 -425,59 -284,-1 -337,-3 -363,-17 z"
       id="path2"
       inkscape:connector-curvature="0" />
  </g>
  <g
     id="layerbg2"
     inkscape:export-xdpi="125.6"
     inkscape:export-ydpi="125.6"
     style="fill:#ad6d00;stroke:none"
     transform="translate(-150,-150)">
    <path
       d="m 157,443 c -4,-3 -7,-35 -7,-69 0,-95 43,-165 126,-203 41,-20 62,-21 369,-21 311,0 326,1 362,21 92,51 125,109 121,207 l -3,67 -481,3 c -264,1 -484,-1 -487,-5 z"
       id="path5"
       inkscape:connector-curvature="0" />
  </g>
  <g
     id="layerbg3"
     inkscape:export-xdpi="125.6"
     inkscape:export-ydpi="125.6"
     style="fill:#c5ae85;stroke:none"
     transform="translate(-150,-150)">
    <path
       d="m 185,1010 c -3,-6 0,-12 7,-15 26,-10 898,0 901,10 3,14 -899,19 -908,5 z"
       id="path8"
       inkscape:connector-curvature="0" />
    <path
       d="m 155,830 c -3,-6 0,-12 7,-15 26,-10 963,0 963,10 0,14 -961,19 -970,5 z"
       id="path10"
       inkscape:connector-curvature="0" />
    <path
       d="m 155,650 c -3,-6 0,-12 7,-15 26,-10 963,0 963,10 0,14 -961,19 -970,5 z"
       id="path12"
       inkscape:connector-curvature="0" />
    <path
       d="m 194,528 c -9,-14 4,-25 28,-23 13,1 23,8 23,15 0,15 -43,22 -51,8 z"
       id="path14"
       inkscape:connector-curvature="0" />
    <path
       d="m 494,528 c -9,-14 4,-25 28,-23 13,1 23,8 23,15 0,15 -43,22 -51,8 z"
       id="path16"
       inkscape:connector-curvature="0" />
    <path
       d="m 794,528 c -9,-14 4,-25 28,-23 13,1 23,8 23,15 0,15 -43,22 -51,8 z"
       id="path18"
       inkscape:connector-curvature="0" />
    <path
       d="m 155,450 c -3,-6 0,-12 7,-15 26,-10 963,0 963,10 0,14 -961,19 -970,5 z"
       id="path20"
       inkscape:connector-curvature="0" />
  </g>
  <g
     id="layer101"
     inkscape:export-xdpi="125.6"
     inkscape:export-ydpi="125.6"
     style="fill:#fbfbd4;stroke:none"
     transform="translate(-150,-150)">
    <path
       d="M 275,1103 C 194,1061 160,1001 160,900 v -70 h 480 480 v 70 c 0,102 -35,162 -117,204 -47,24 -683,23 -728,-1 z m 593,-100 c -126,-2 -330,-2 -455,0 -126,1 -23,2 227,2 250,0 353,-1 228,-2 z"
       id="path23"
       inkscape:connector-curvature="0" />
    <path
       d="m 160,735 v -85 h 480 480 v 85 85 H 640 160 Z"
       id="path25"
       inkscape:connector-curvature="0" />
    <path
       d="m 160,545 v -95 h 480 480 v 95 95 H 640 160 Z m 47,-32 c -4,-3 -7,0 -7,7 0,7 3,10 7,7 3,-4 3,-10 0,-14 z m 30,0 c -4,-3 -7,0 -7,7 0,7 3,10 7,7 3,-4 3,-10 0,-14 z m 80,0 c -4,-3 -7,0 -7,7 0,7 3,10 7,7 3,-4 3,-10 0,-14 z m 110,0 c -4,-3 -7,0 -7,7 0,7 3,10 7,7 3,-4 3,-10 0,-14 z m 80,0 c -4,-3 -7,0 -7,7 0,7 3,10 7,7 3,-4 3,-10 0,-14 z m 30,0 c -4,-3 -7,0 -7,7 0,7 3,10 7,7 3,-4 3,-10 0,-14 z m 80,0 c -4,-3 -7,0 -7,7 0,7 3,10 7,7 3,-4 3,-10 0,-14 z m 110,0 c -4,-3 -7,0 -7,7 0,7 3,10 7,7 3,-4 3,-10 0,-14 z m 80,0 c -4,-3 -7,0 -7,7 0,7 3,10 7,7 3,-4 3,-10 0,-14 z m 30,0 c -4,-3 -7,0 -7,7 0,7 3,10 7,7 3,-4 3,-10 0,-14 z m 80,0 c -4,-3 -7,0 -7,7 0,7 3,10 7,7 3,-4 3,-10 0,-14 z m 110,0 c -4,-3 -7,0 -7,7 0,7 3,10 7,7 3,-4 3,-10 0,-14 z"
       id="path27"
       inkscape:connector-curvature="0" />
  </g>
  <g
     id="layer102"
     inkscape:export-xdpi="125.6"
     inkscape:export-ydpi="125.6"
     style="fill:#ad6d00;stroke:none"
     transform="translate(-150,-150)">
    <path
       d="m 160,375 c 0,-95 37,-157 116,-194 41,-20 61,-21 369,-21 311,0 326,1 362,21 84,46 113,97 113,194 v 65 H 640 160 Z"
       id="path30"
       inkscape:connector-curvature="0" />
  </g>
  <g
     id="layer103"
     inkscape:export-xdpi="125.6"
     inkscape:export-ydpi="125.6"
     style="fill:#c5ae85;stroke:none"
     transform="translate(-150,-150)">
    <path
       d="m 413,1003 c 125,-2 329,-2 455,0 125,1 22,2 -228,2 -250,0 -353,-1 -227,-2 z"
       id="path33"
       inkscape:connector-curvature="0" />
    <path
       d="m 398,823 c 133,-2 351,-2 485,0 133,1 24,2 -243,2 -267,0 -376,-1 -242,-2 z"
       id="path35"
       inkscape:connector-curvature="0" />
    <path
       d="m 398,643 c 133,-2 351,-2 485,0 133,1 24,2 -243,2 -267,0 -376,-1 -242,-2 z"
       id="path37"
       inkscape:connector-curvature="0" />
    <path
       d="m 200,520 c 0,-7 3,-10 7,-7 3,4 3,10 0,14 -4,3 -7,0 -7,-7 z"
       id="path39"
       inkscape:connector-curvature="0" />
    <path
       d="m 230,520 c 0,-7 3,-10 7,-7 3,4 3,10 0,14 -4,3 -7,0 -7,-7 z"
       id="path41"
       inkscape:connector-curvature="0" />
    <path
       d="m 310,520 c 0,-7 3,-10 7,-7 3,4 3,10 0,14 -4,3 -7,0 -7,-7 z"
       id="path43"
       inkscape:connector-curvature="0" />
    <path
       d="m 420,520 c 0,-7 3,-10 7,-7 3,4 3,10 0,14 -4,3 -7,0 -7,-7 z"
       id="path45"
       inkscape:connector-curvature="0" />
    <path
       d="m 500,520 c 0,-7 3,-10 7,-7 3,4 3,10 0,14 -4,3 -7,0 -7,-7 z"
       id="path47"
       inkscape:connector-curvature="0" />
    <path
       d="m 530,520 c 0,-7 3,-10 7,-7 3,4 3,10 0,14 -4,3 -7,0 -7,-7 z"
       id="path49"
       inkscape:connector-curvature="0" />
    <path
       d="m 610,520 c 0,-7 3,-10 7,-7 3,4 3,10 0,14 -4,3 -7,0 -7,-7 z"
       id="path51"
       inkscape:connector-curvature="0" />
    <path
       d="m 720,520 c 0,-7 3,-10 7,-7 3,4 3,10 0,14 -4,3 -7,0 -7,-7 z"
       id="path53"
       inkscape:connector-curvature="0" />
    <path
       d="m 800,520 c 0,-7 3,-10 7,-7 3,4 3,10 0,14 -4,3 -7,0 -7,-7 z"
       id="path55"
       inkscape:connector-curvature="0" />
    <path
       d="m 830,520 c 0,-7 3,-10 7,-7 3,4 3,10 0,14 -4,3 -7,0 -7,-7 z"
       id="path57"
       inkscape:connector-curvature="0" />
    <path
       d="m 910,520 c 0,-7 3,-10 7,-7 3,4 3,10 0,14 -4,3 -7,0 -7,-7 z"
       id="path59"
       inkscape:connector-curvature="0" />
    <path
       d="m 1020,520 c 0,-7 3,-10 7,-7 3,4 3,10 0,14 -4,3 -7,0 -7,-7 z"
       id="path61"
       inkscape:connector-curvature="0" />
    <path
       d="m 398,443 c 133,-2 351,-2 485,0 133,1 24,2 -243,2 -267,0 -376,-1 -242,-2 z"
       id="path63"
       inkscape:connector-curvature="0" />
  </g>
</svg>
