<?xml version="1.0" standalone="no"?>
<!DOCTYPE svg PUBLIC "-//W3C//DTD SVG 20010904//EN"
 "http://www.w3.org/TR/2001/REC-SVG-20010904/DTD/svg10.dtd">
<svg version="1.0" xmlns="http://www.w3.org/2000/svg"
 width="328.000000pt" height="328.000000pt" viewBox="0 0 328.000000 328.000000"
 preserveAspectRatio="xMidYMid meet">
<metadata>
Created by potrace 1.11, written by Peter Selinger 2001-2013
</metadata>
<g transform="translate(0.000000,328.000000) scale(0.100000,-0.100000)"
fill="#000000" stroke="none">
<path d="M1847 3126 c-12 -13 -40 -56 -62 -95 -35 -62 -44 -71 -75 -77 -19 -3
-44 -8 -54 -11 -15 -4 -9 8 22 47 23 29 42 57 42 62 0 12 -105 -82 -108 -97
-2 -5 -19 -27 -39 -47 l-37 -38 135 0 c104 0 154 -5 215 -21 89 -23 204 -73
204 -88 0 -6 6 -11 13 -11 6 0 21 -7 31 -15 19 -14 19 -16 1 -54 -9 -22 -30
-52 -46 -67 -16 -15 -29 -32 -29 -37 0 -4 7 -1 16 7 8 9 28 16 44 16 36 0 53
-29 76 -127 16 -68 14 -112 -8 -200 -16 -64 -30 -53 -22 17 5 50 4 64 -11 80
-24 26 -33 25 -41 -6 -4 -17 -11 -23 -21 -19 -16 5 -15 2 4 -96 6 -29 2 -32
-70 -44 -65 -11 -60 -44 15 -92 36 -22 40 -22 67 -8 41 21 48 51 21 80 l-22
23 32 7 c37 8 70 -15 70 -51 0 -21 6 -23 70 -30 39 -3 70 -8 70 -10 0 -2 -11
-27 -23 -56 -25 -55 -54 -82 -141 -133 -43 -25 -49 -27 -41 -10 4 11 16 48 26
82 l17 62 -24 -11 c-16 -8 -21 -14 -13 -19 9 -5 4 -25 -16 -74 -27 -62 -33
-69 -92 -103 -34 -20 -61 -38 -58 -40 2 -2 28 2 58 8 72 16 84 9 156 -98 33
-48 107 -154 165 -237 58 -82 107 -152 108 -155 6 -12 136 -69 169 -74 19 -3
48 -2 65 3 25 7 21 9 -35 15 -82 9 -155 46 -206 104 -22 25 -98 131 -168 236
-75 111 -141 199 -158 210 -17 10 -27 22 -22 26 4 4 52 37 105 74 106 73 133
102 143 159 7 35 9 37 45 37 21 0 74 -7 117 -16 121 -25 133 -25 69 -4 -32 11
-99 25 -148 32 -79 10 -92 15 -109 39 l-19 27 30 12 c17 7 29 15 26 17 -2 2
-20 -3 -40 -11 -34 -14 -37 -14 -63 8 l-27 23 22 96 c31 133 29 190 -7 262
-22 43 -27 63 -20 76 5 10 9 26 9 36 -1 13 -5 10 -16 -10 l-16 -29 -24 23
c-13 12 -24 28 -24 35 0 8 -6 11 -13 8 -7 -2 -25 5 -40 16 -20 16 -27 31 -27
55 0 46 -34 150 -69 211 -29 50 -107 114 -138 114 -8 0 -24 -11 -36 -24z m105
-40 c30 -28 78 -101 78 -121 0 -2 -15 -3 -32 0 -18 3 -75 6 -125 7 -51 2 -93
4 -93 4 -1 10 53 115 65 127 26 27 66 21 107 -17z m92 -153 c3 -10 8 -40 12
-67 6 -45 5 -49 -12 -44 -11 3 -57 17 -104 31 -47 14 -111 28 -143 32 -54 7
-73 20 -44 31 7 2 72 11 143 18 71 8 132 14 136 15 4 0 9 -7 12 -16z m-387
-19 c-3 -3 -12 -4 -19 -1 -8 3 -5 6 6 6 11 1 17 -2 13 -5z m-37 -8 c0 -2 -9
-6 -20 -9 -11 -3 -18 -1 -14 4 5 9 34 13 34 5z m100 -6 c0 -5 -15 -10 -32 -9
-28 0 -30 2 -13 9 28 12 45 12 45 0z m475 -217 c4 -12 -2 -25 -21 -41 -34 -29
-38 -24 -19 21 17 40 29 46 40 20z m51 -78 c17 -42 18 -143 2 -271 -10 -85
-10 -96 6 -113 17 -18 17 -20 0 -29 -14 -8 -23 -5 -41 14 -21 23 -22 25 -6 67
10 25 16 73 16 122 1 66 -4 90 -26 139 l-27 59 22 24 c29 31 36 29 54 -12z
m79 -435 c18 -20 17 -20 -36 -20 l-54 1 24 19 c29 25 43 25 66 0z m-242 3
c-13 -2 -33 -2 -45 0 -13 2 -3 4 22 4 25 0 35 -2 23 -4z"/>
<path d="M954 3050 c-28 -11 -79 -77 -105 -136 -17 -38 -23 -75 -27 -165 -5
-143 16 -239 85 -379 39 -79 62 -110 138 -186 99 -101 163 -140 252 -154 47
-8 64 -17 107 -58 28 -27 62 -54 74 -61 12 -6 22 -15 22 -19 0 -4 -22 -19 -48
-34 -89 -50 -300 -293 -360 -414 -21 -44 -31 -54 -66 -64 -23 -7 -71 -28 -108
-46 -37 -19 -83 -34 -101 -34 -42 0 -72 -29 -62 -60 4 -13 24 -29 48 -39 37
-16 40 -19 20 -25 -30 -10 -36 -33 -13 -56 25 -25 67 -25 140 0 47 16 49 18
15 12 -51 -9 -122 -9 -131 0 -9 10 32 45 74 64 17 8 32 16 32 19 0 3 -26 2
-58 -1 -66 -7 -102 6 -102 36 0 24 29 40 72 40 18 0 51 3 73 7 35 6 37 8 15
13 -20 5 -12 10 51 33 73 27 77 30 120 95 59 89 236 308 287 354 48 44 104 74
154 83 48 9 91 -14 120 -65 22 -38 46 -56 34 -25 -9 24 8 18 55 -20 49 -39
106 -47 130 -19 11 14 9 15 -22 9 -28 -5 -43 0 -83 27 -27 18 -60 39 -72 46
-70 39 -118 120 -119 199 l0 53 -35 -1 c-30 -1 -32 -2 -10 -8 21 -5 26 -13 28
-46 2 -22 11 -57 21 -77 10 -21 17 -39 15 -40 -1 -2 -25 -1 -52 0 -64 5 -132
55 -189 140 -73 108 -106 265 -67 320 18 26 12 41 -9 24 -14 -12 -82 -1 -100
17 -8 8 1 11 32 11 34 0 49 6 72 29 26 27 29 36 29 98 0 80 -18 154 -56 231
-73 149 -262 242 -353 174 -35 -26 -38 -22 -15 14 21 32 93 74 126 74 47 0 91
-23 257 -135 196 -132 233 -153 178 -100 -21 20 -37 38 -35 39 2 1 22 12 45
24 62 31 126 73 120 78 -2 3 -31 -11 -63 -30 -33 -19 -78 -40 -100 -46 l-42
-13 -122 87 c-66 47 -137 93 -157 101 -38 16 -125 19 -159 5z m142 -121 c74
-38 119 -81 150 -141 32 -63 64 -187 64 -249 0 -43 -5 -55 -29 -80 -34 -34
-63 -36 -113 -10 -32 18 -35 18 -31 3 11 -42 64 -82 108 -82 l30 0 0 -98 c0
-82 4 -107 27 -159 l26 -63 -28 0 c-33 0 -146 56 -213 105 -144 107 -259 384
-244 591 7 92 23 138 59 172 53 49 116 52 194 11z"/>
<path d="M1690 2800 c0 -5 -18 -10 -39 -10 -35 0 -40 -3 -50 -31 -15 -43 -14
-104 2 -117 9 -8 12 2 12 46 0 55 0 56 34 64 50 14 61 5 61 -47 0 -32 -7 -55
-22 -76 -26 -34 -29 -99 -7 -151 18 -44 21 -28 8 51 -13 84 -5 101 47 101 71
0 153 -121 170 -250 5 -34 3 -50 -5 -50 -6 0 -11 6 -11 14 0 22 -28 39 -55 32
-30 -8 -34 -46 -10 -103 12 -29 13 -38 3 -45 -8 -4 6 -8 34 -8 43 0 47 2 57
31 24 69 4 192 -42 269 -12 19 -39 54 -60 77 -23 25 -37 49 -34 57 5 12 1 13
-19 6 -14 -6 -26 -10 -27 -10 -1 0 -2 22 -2 49 0 35 3 47 12 44 21 -8 15 3
-18 36 -33 33 -39 37 -39 21z"/>
<path d="M1700 2270 c0 -5 4 -10 8 -10 11 0 94 -71 89 -76 -2 -3 -53 7 -113
22 -60 14 -149 28 -199 30 -89 3 -89 3 60 -20 217 -34 264 -48 265 -78 0 -5
-36 -8 -80 -8 -95 0 -232 -19 -224 -31 3 -5 69 -6 147 -3 133 5 141 4 122 -11
-16 -13 -34 -15 -85 -11 -66 6 -65 3 8 -25 13 -5 22 -17 22 -29 0 -11 14 -49
31 -83 72 -143 134 -156 198 -42 17 30 48 73 67 95 30 33 43 40 78 42 37 1 36
2 -14 7 -37 4 -64 2 -83 -8 -32 -15 -116 -9 -157 12 -22 11 -25 20 -27 72 -2
78 -7 106 -22 130 -11 17 -12 17 -7 2 5 -15 0 -14 -25 7 -31 27 -59 34 -59 16z"/>
<path d="M2410 2250 c-8 -5 -10 -10 -5 -10 6 0 17 5 25 10 8 5 11 10 5 10 -5
0 -17 -5 -25 -10z"/>
<path d="M2014 1738 c3 -16 9 -39 12 -52 4 -18 1 -25 -14 -28 -11 -3 -29 -25
-40 -49 -10 -24 -31 -55 -45 -68 l-25 -23 -44 66 c-46 71 -73 82 -90 37 -9
-24 -9 -25 12 -6 24 22 27 19 73 -51 43 -66 61 -64 112 10 22 33 46 61 52 63
26 9 41 -53 50 -207 4 -88 9 -130 11 -97 2 31 7 57 12 57 5 0 65 -41 134 -91
l126 -92 0 -42 c0 -26 -6 -48 -15 -55 -21 -18 -19 -57 4 -70 34 -18 60 -11
100 26 l40 35 134 -7 135 -7 16 30 c16 31 7 53 -21 53 -17 0 -16 15 2 30 17
14 20 56 5 65 -7 4 -9 -2 -4 -19 5 -21 1 -28 -19 -37 -20 -9 -32 -8 -58 5 -43
22 -45 20 -12 -10 l28 -25 -32 4 c-34 4 -45 -6 -17 -17 9 -3 32 -6 52 -6 20 0
43 -4 51 -9 13 -8 13 -12 0 -27 -12 -15 -28 -16 -130 -11 l-116 7 -42 -30
c-71 -52 -146 -34 -100 24 10 13 22 45 25 70 6 39 4 45 -8 41 -22 -9 -156 86
-221 155 -54 57 -54 57 -61 138 -5 56 -4 86 5 100 14 22 7 58 -16 87 -15 19
-15 17 -10 -30 l6 -50 -19 51 c-11 29 -25 60 -31 70 -11 17 -12 16 -7 -8z"/>
<path d="M1535 1501 c-27 -15 -79 -45 -115 -66 -36 -20 -85 -49 -110 -63 -25
-13 -64 -40 -87 -59 -37 -30 -43 -39 -43 -74 0 -22 5 -39 11 -39 8 0 10 12 6
35 -6 35 -4 38 61 85 79 59 222 136 222 120 0 -6 -9 -28 -19 -49 -22 -43 -210
-251 -226 -251 -7 0 -10 -12 -7 -30 4 -26 1 -30 -20 -30 -14 0 -58 18 -99 39
-48 25 -80 37 -88 31 -10 -6 -8 -10 10 -15 13 -4 52 -24 87 -44 58 -34 62 -38
57 -66 -14 -80 -102 -86 -253 -16 -87 40 -98 43 -165 39 -74 -3 -152 -33 -207
-79 l-25 -20 25 6 c14 3 34 10 45 15 22 10 149 49 178 55 10 2 55 -10 100 -26
129 -48 179 -60 225 -56 41 4 42 4 42 -26 l0 -30 -55 7 c-30 3 -105 25 -167
47 -119 44 -193 58 -210 41 -8 -8 1 -11 28 -11 21 1 99 -20 171 -46 73 -25
155 -49 183 -52 40 -5 49 -9 46 -22 -3 -9 -22 -95 -42 -191 -20 -96 -42 -180
-48 -186 -6 -6 -65 -32 -132 -58 -134 -52 -177 -85 -177 -136 0 -52 29 -68
158 -86 50 -7 192 28 257 63 65 35 83 58 82 101 -1 35 4 41 100 120 142 116
203 155 230 148 36 -9 137 -79 210 -147 69 -64 96 -107 96 -153 0 -20 9 -30
38 -45 51 -26 206 -55 257 -47 86 12 128 25 147 44 21 21 19 52 -3 52 -7 0 -9
-3 -6 -6 3 -4 2 -15 -4 -25 -11 -22 -59 -26 -59 -6 0 28 -48 59 -97 63 l-48 4
40 -15 c22 -9 49 -24 60 -35 18 -18 18 -21 4 -36 -22 -21 -74 -24 -164 -8 -70
12 -143 38 -146 53 -1 3 -3 20 -5 38 -4 54 -53 109 -176 198 -65 47 -118 90
-118 94 0 5 10 12 23 16 19 6 19 8 5 12 -29 7 -174 -77 -272 -158 -117 -97
-170 -159 -136 -159 14 0 12 -32 -3 -51 -41 -54 -280 -110 -351 -83 -9 3 -16
16 -16 29 0 25 22 35 78 35 34 0 43 14 16 24 -9 3 -33 6 -54 6 -41 0 -70 -26
-70 -62 0 -23 -13 -23 -35 2 -23 25 -14 62 22 86 50 32 238 103 245 92 8 -14
42 52 62 122 9 30 23 100 31 155 15 104 74 327 88 333 21 10 37 37 37 63 0 23
19 49 95 129 69 71 104 118 126 164 22 46 41 71 69 90 22 15 40 28 40 31 0 7
-1 7 -55 -24z"/>
<path d="M1706 1503 c-6 -14 -5 -15 5 -6 7 7 10 15 7 18 -3 3 -9 -2 -12 -12z"/>
<path d="M1642 1373 c-29 -58 -51 -107 -49 -110 3 -2 28 44 56 103 29 58 51
108 49 110 -2 2 -28 -44 -56 -103z"/>
<path d="M2057 1199 c-10 -97 -41 -210 -75 -273 -31 -56 -147 -167 -207 -196
-27 -13 -33 -20 -20 -20 31 0 94 37 158 92 32 28 59 49 61 47 1 -2 8 -37 15
-77 7 -40 15 -71 17 -69 3 2 0 45 -6 94 -9 86 -9 93 14 144 27 60 59 234 54
294 -2 31 -5 22 -11 -36z"/>
<path d="M1504 1118 c-95 -169 -101 -237 -27 -333 45 -59 97 -85 165 -84 l53
2 -50 6 c-72 9 -140 45 -167 89 -19 31 -23 51 -23 119 0 80 1 85 57 193 31 60
55 110 53 110 -2 0 -30 -46 -61 -102z"/>
<path d="M2070 466 c0 -11 25 -28 77 -51 42 -20 78 -34 80 -32 2 2 -25 19 -59
37 -35 18 -71 40 -80 48 -16 14 -18 13 -18 -2z"/>
</g>
</svg>
