<?xml version="1.0" encoding="UTF-8" standalone="no"?>
<!-- Created with Inkscape (http://www.inkscape.org/) -->

<svg
   xmlns:dc="http://purl.org/dc/elements/1.1/"
   xmlns:cc="http://creativecommons.org/ns#"
   xmlns:rdf="http://www.w3.org/1999/02/22-rdf-syntax-ns#"
   xmlns:svg="http://www.w3.org/2000/svg"
   xmlns="http://www.w3.org/2000/svg"
   xmlns:sodipodi="http://sodipodi.sourceforge.net/DTD/sodipodi-0.dtd"
   xmlns:inkscape="http://www.inkscape.org/namespaces/inkscape"
   version="1.1"
   id="svg2"
   width="300"
   height="300"
   viewBox="0 0 300 300"
   sodipodi:docname="dynalist_allstar.svg"
   inkscape:version="0.92.2 (5c3e80d, 2017-08-06)">
  <metadata
     id="metadata8">
    <rdf:RDF>
      <cc:Work
         rdf:about="">
        <dc:format>image/svg+xml</dc:format>
        <dc:type
           rdf:resource="http://purl.org/dc/dcmitype/StillImage" />
        <dc:title></dc:title>
      </cc:Work>
    </rdf:RDF>
  </metadata>
  <defs
     id="defs6" />
  <sodipodi:namedview
     pagecolor="#ffffff"
     bordercolor="#666666"
     borderopacity="1"
     objecttolerance="10"
     gridtolerance="10"
     guidetolerance="10"
     inkscape:pageopacity="1"
     inkscape:pageshadow="2"
     inkscape:window-width="1920"
     inkscape:window-height="986"
     id="namedview4"
     showgrid="false"
     inkscape:zoom="0.78666667"
     inkscape:cx="-233.89831"
     inkscape:cy="150"
     inkscape:window-x="-11"
     inkscape:window-y="-11"
     inkscape:window-maximized="1"
     inkscape:current-layer="svg2"
     showborder="true"
     inkscape:pagecheckerboard="false" />
  <g
     id="g4508"
     transform="translate(1022.0338,11.549616)">
    <path
       style="fill:#ffffff;fill-opacity:1"
       d="M -514.83051,134.74576 V -15.254237 h 150 150 v 149.999997 150 h -150 -150 z"
       id="path4512"
       inkscape:connector-curvature="0" />
    <path
       style="fill:#0074d9"
       d="m -981.53201,287.42295 c -7.85994,-1.83906 -18.53849,-8.01136 -24.94629,-14.41919 -6.5721,-6.57209 -12.5896,-17.14527 -14.4811,-25.44444 -1.1989,-5.26016 -1.5155,-215.008576 -0.3245,-214.985408 0.4125,0.008 7.1411,15.628122 14.9525,34.711329 l 14.20246,34.696739 -2.97688,5.20305 c -7.13138,12.46433 -9.92548,27.28809 -7.62058,40.43035 2.0238,11.53948 4.88962,18.60465 11.00684,27.13564 8.68942,12.11816 21.70127,20.95053 35.73855,24.25914 8.34054,1.96588 24.81944,1.98319 32.48701,0.0341 3.27806,-0.83327 9.3351,-3.1371 13.4601,-5.11962 6.53609,-3.14131 9.47407,-5.59008 22.85989,-19.05337 l 15.35989,-15.44879 15.14011,15.45955 c 13.43346,13.7169 15.98911,15.86239 22.67176,19.03316 11.97601,5.68236 18.40877,6.93742 32.92863,6.42457 11.14579,-0.39369 13.42901,-0.79548 20.53972,-3.61449 24.26166,-9.61842 39.83909,-32.36183 39.83909,-58.16598 0,-10.53407 -2.15767,-19.22574 -7.23662,-29.15104 l -3.91517,-7.65103 14.15635,-34.584374 c 7.78599,-19.021376 14.49385,-34.59091 14.90635,-34.598934 1.19096,-0.02317 0.87436,209.725248 -0.32451,214.985408 -1.8915,8.29917 -7.90895,18.87235 -14.48105,25.44444 -6.57209,6.5721 -17.14527,12.58955 -25.44444,14.48105 -5.81959,1.32637 -212.81542,1.26776 -218.49811,-0.0619 z m 116.78023,-9.26259 c 4.01559,-1.74577 47.30205,-37.0785 50.13682,-40.92437 2.90688,-3.94371 2.82177,-11.13822 -0.18158,-15.34879 -3.21229,-4.5035 -10.08279,-7.00457 -15.02027,-5.46783 -2.21956,0.69081 -11.36305,7.39809 -22.69544,16.64842 -10.43809,8.52034 -19.22283,15.49153 -19.52165,15.49153 -0.29882,0 -9.08356,-6.97119 -19.52165,-15.49153 -11.33239,-9.25033 -20.47588,-15.95761 -22.69544,-16.64842 -4.93748,-1.53674 -11.80797,0.96433 -15.02027,5.46783 -3.00335,4.21057 -3.08846,11.40508 -0.18158,15.34879 2.68291,3.63984 45.97012,39.09235 49.91894,40.88394 3.92016,1.77858 10.74112,1.79724 14.78212,0.0404 z m -89.27119,-107.76652 c -7.62483,-2.99024 -15.98413,-11.47421 -18.8483,-19.12941 -6.27522,-16.77203 0.98674,-35.72052 16.63476,-43.40475 5.14651,-2.52728 6.72654,-2.80036 16.20261,-2.80036 16.67102,0 19.8029,1.97128 41.70487,26.25 l 6.54027,7.25 -6.54027,7.25 c -21.40334,23.72599 -25.01048,26.07317 -40.70487,26.4868 -7.76492,0.20465 -10.50252,-0.14278 -14.98907,-1.90228 z m 135.8418,-0.20487 c -3.106,-1.27758 -6.88512,-3.29656 -8.39803,-4.48662 -3.72954,-2.93366 -25.4547,-26.13996 -25.4547,-27.19011 0,-0.46115 5.59171,-6.84989 12.42602,-14.1972 16.32687,-17.5524 19.4336,-19.25761 35.07398,-19.25123 9.65312,0.004 11.61222,0.30532 16,2.46139 12.19962,5.99467 19.5,17.61318 19.5,31.03412 0,10.0068 -2.90959,17.06959 -9.92,24.08 -7.34219,7.34219 -13.97358,9.92919 -25.36751,9.89626 -6.26584,-0.0181 -9.55109,-0.57434 -13.85976,-2.34661 z m -69.39137,-68.16139 c -13.86203,-14.182048 -15.58592,-15.60145 -23.46136,-19.317321 -11.11259,-5.243258 -18.12665,-6.513154 -32.72052,-5.924049 -9.49459,0.383265 -13.07619,0.975857 -18.46452,3.05504 -4.99785,1.92851 -6.91405,2.281545 -7.59242,1.398807 -1.63604,-2.128912 -32.22254,-77.6936027 -32.22254,-79.6065617 0,-2.28631998 7.18928,-7.0428835 15.5,-10.255091 l 6,-2.3190823 h 108.5 108.5 l 6,2.3190823 c 8.31072,3.2122075 15.5,7.96877102 15.5,10.255091 0,1.912959 -30.5865,77.4776497 -32.22254,79.6065617 -0.67827,0.8826 -2.59535,0.527156 -7.59242,-1.407696 -5.54061,-2.145312 -8.83175,-2.666153 -19.22476,-3.042427 -14.53893,-0.526375 -21.36478,0.781924 -32.46028,6.221602 -8.48819,4.16142 -13.92485,8.738646 -27,22.731784 -5.5,5.88615 -10.46739,10.9021 -11.03864,11.14655 -0.57125,0.24446 -7.77125,-6.44358 -16,-14.86229 z"
       id="path4510"
       inkscape:connector-curvature="0" />
  </g>
</svg>
