<?xml version="1.0"?>
<svg xmlns="http://www.w3.org/2000/svg" xmlns:xlink="http://www.w3.org/1999/xlink" version="1.1" id="Capa_1" x="0px" y="0px" viewBox="0 0 287.317 287.317" style="enable-background:new 0 0 287.317 287.317;" xml:space="preserve" width="512px" height="512px" class=""><g><g>
	<path d="M108.328,57.261l25.331-13.421v127.51c0,5.523,4.477,10,10,10c5.522,0,10-4.477,10-10V43.444l25.306,13.725   c3.53,1.915,7.945,0.688,9.977-2.776c3.34-5.695,7.534-14.919,7.534-25.325c0-10.411-4.193-19.635-7.533-25.331   c-2.033-3.468-6.444-4.693-9.978-2.776l-34.819,18.891L108.328,0.869c-3.52-1.865-7.887-0.634-9.907,2.799   c-3.349,5.69-7.579,14.947-7.579,25.4c0,10.448,4.231,19.704,7.579,25.394C100.444,57.898,104.804,59.128,108.328,57.261z" data-original="#000000" class="active-path" data-old_color="#000000" fill="#FFFFFF"/>
	<path d="M264.552,45.682l-38.053-13.458c-2.165-0.766-4.549-0.617-6.602,0.411c-2.053,1.028-3.6,2.848-4.284,5.041l-64.777,207.652   c-0.825,2.646-3.275,4.447-6.046,4.447c-2.771,0-5.221-1.802-6.046-4.447L73.926,37.573c-0.679-2.175-2.207-3.984-4.238-5.017   c-2.031-1.033-4.393-1.202-6.55-0.468L22.925,45.754c-5.596,1.902-9.359,7.156-9.359,13.066v214.697c0,7.622,6.179,13.8,13.8,13.8   h232.585c7.622,0,13.8-6.178,13.8-13.8V58.692C273.751,52.844,270.066,47.632,264.552,45.682z M244.064,244.098   c0,2.971-2.408,5.379-5.379,5.379h-51.149c-2.971,0-5.379-2.408-5.379-5.379v-11.036c0-2.971,2.408-5.379,5.379-5.379h51.149   c2.971,0,5.379,2.408,5.379,5.379V244.098z" data-original="#000000" class="active-path" data-old_color="#000000" fill="#FFFFFF"/>
</g></g> </svg>
