<?xml version="1.0"?>
<svg xmlns="http://www.w3.org/2000/svg" xmlns:xlink="http://www.w3.org/1999/xlink" version="1.1" id="Capa_1" x="0px" y="0px" viewBox="0 0 511.997 511.997" style="enable-background:new 0 0 511.997 511.997;" xml:space="preserve" width="512px" height="512px" class=""><g><g>
	<g>
		<path d="M439.208,162.493c-42.656-33.504-84.672-66.976-127.168-100.48c-18.432-14.176-27.392-32.192-23.648-55.488    c0.64-5.792-2.592-7.744-8.96-5.792c-14.656,4.48-26.752,12.896-33.76,26.432c-9.6,19.328-24.8,26.432-44,25.792    c-28.704-1.312-46.496,14.208-61.792,36.16c-16.64,23.296-24.8,50.368-31.168,77.472c-7.008,29.056-10.272,58.144-11.424,87.712    c-1.312,22.624-0.64,44.576-1.312,67.072c0,1.312,0,1.984,0,2.624v60h281.632v-45.248c0,0,2.272-19.04-11.808-32.992    c-14.08-13.952-29.024-27.008-29.024-27.008c-7.2-5.888-13.76-12.608-19.424-19.936l-51.936-67.2    c3.232,2.624,6.368,5.12,9.6,7.744c15.968,12.224,33.12,17.376,52.832,12.224c11.424-2.624,22.976-1.312,33.12,5.12    c5.664,3.776,11.936,7.04,18.24,10.304c14.816,7.68,33.056,4.16,43.712-8.64c6.56-7.872,13.12-15.744,19.68-23.488    C450.952,184.989,449.416,170.493,439.208,162.493z" data-original="#000000" class="active-path" data-old_color="#FBF7F7" fill="#FFFFFF"/>
	</g>
</g><g>
	<g>
		<path d="M414.312,488.861l-32-64.032c-2.72-5.408-8.256-8.832-14.304-8.832h-256c-6.048,0-11.584,3.424-14.304,8.832l-32,64    c-2.496,4.96-2.208,10.848,0.704,15.552c2.912,4.704,8.064,7.616,13.6,7.616h320c5.536,0,10.688-2.88,13.632-7.584    C416.552,499.709,416.808,493.821,414.312,488.861z" data-original="#000000" class="active-path" data-old_color="#FBF7F7" fill="#FFFFFF"/>
	</g>
</g></g> </svg>
