<?xml version="1.0" encoding="UTF-8" standalone="no"?>
<svg
   xmlns:dc="http://purl.org/dc/elements/1.1/"
   xmlns:cc="http://creativecommons.org/ns#"
   xmlns:rdf="http://www.w3.org/1999/02/22-rdf-syntax-ns#"
   xmlns:svg="http://www.w3.org/2000/svg"
   xmlns="http://www.w3.org/2000/svg"
   xmlns:sodipodi="http://sodipodi.sourceforge.net/DTD/sodipodi-0.dtd"
   xmlns:inkscape="http://www.inkscape.org/namespaces/inkscape"
   width="195px"
   height="195px"
   viewBox="0 0 195 195"
   version="1.1"
   id="svg12"
   sodipodi:docname="medium.svg"
   inkscape:version="0.92.2 (5c3e80d, 2017-08-06)">
  <metadata
     id="metadata16">
    <rdf:RDF>
      <cc:Work
         rdf:about="">
        <dc:format>image/svg+xml</dc:format>
        <dc:type
           rdf:resource="http://purl.org/dc/dcmitype/StillImage" />
      </cc:Work>
    </rdf:RDF>
  </metadata>
  <sodipodi:namedview
     pagecolor="#ffffff"
     bordercolor="#666666"
     borderopacity="1"
     objecttolerance="10"
     gridtolerance="10"
     guidetolerance="10"
     inkscape:pageopacity="0"
     inkscape:pageshadow="2"
     inkscape:window-width="1920"
     inkscape:window-height="986"
     id="namedview14"
     showgrid="false"
     inkscape:zoom="1.2102564"
     inkscape:cx="-159.49645"
     inkscape:cy="99.144701"
     inkscape:window-x="-11"
     inkscape:window-y="-11"
     inkscape:window-maximized="1"
     inkscape:current-layer="svg12" />
  <!-- Generator: Sketch 46.2 (44496) - http://www.bohemiancoding.com/sketch -->
  <title
     id="title2">Monogram</title>
  <desc
     id="desc4">Created with Sketch.</desc>
  <defs
     id="defs6" />
  <g
     id="Page-1"
     stroke="none"
     stroke-width="1"
     fill="none"
     fill-rule="evenodd">
    <g
       id="Monogram"
       fill-rule="nonzero">
      <rect
         id="Rectangle-path"
         fill="#12100E"
         x="0"
         y="0"
         width="195"
         height="195"
         style="fill:#12100e;fill-opacity:0" />
      <path
         d="M 23.344897,50.928787 C 23.58319,48.57437 22.685349,46.247291 20.927286,44.66268 L 3.0190608,23.089369 V 19.8668 H 58.624102 l 42.979748,94.26015 37.78634,-94.26015 h 53.00836 v 3.222569 l -15.31154,14.680593 c -1.32002,1.006199 -1.97481,2.659955 -1.70128,4.29676 V 149.93329 c -0.27353,1.63678 0.38126,3.29055 1.70128,4.29675 l 14.95338,14.68058 v 3.22258 h -75.21456 v -3.22258 l 15.49062,-15.03864 c 1.5222,-1.52179 1.5222,-1.96935 1.5222,-4.29678 V 62.38681 L 90.769367,171.77514 H 84.949194 L 34.806162,62.38681 v 73.31344 c -0.418074,3.08232 0.605612,6.18552 2.775776,8.41449 l 20.146753,24.43783 v 3.22257 H 0.60145 v -3.22257 l 20.146753,-24.43783 c 2.154362,-2.23265 3.118357,-5.35645 2.596694,-8.41449 z"
         id="Shape"
         inkscape:connector-curvature="0"
         style="fill:#ffffff;stroke-width:1.46410012" />
    </g>
  </g>
</svg>
