<?xml version="1.0"?>
<svg xmlns="http://www.w3.org/2000/svg" xmlns:xlink="http://www.w3.org/1999/xlink" version="1.1" id="Capa_1" x="0px" y="0px" viewBox="0 0 512 512" style="enable-background:new 0 0 512 512;" xml:space="preserve" width="512px" height="512px" class=""><g><g>
	<g>
		<polygon points="483.132,377.099 440.702,419.529 419.488,398.314 461.917,355.885 433.201,327.167 390.77,369.597     369.556,348.382 411.986,305.953 383.269,277.235 277.194,383.31 405.775,511.89 511.849,405.815   " data-original="#000000" class="active-path" data-old_color="#ffffff" fill="#ffffff"/>
	</g>
</g><g>
	<g>
		<polygon points="206.047,100.014 163.617,142.443 142.403,121.229 184.833,78.799 156.117,50.083 113.686,92.512 92.471,71.298     134.902,28.868 106.185,0.151 0.11,106.226 128.69,234.806 234.765,128.731   " data-original="#000000" class="active-path" data-old_color="#ffffff" fill="#ffffff"/>
	</g>
</g><g>
	<g>
		
			<rect x="384.012" y="37.981" transform="matrix(0.7071 -0.7071 0.7071 0.7071 36.9749 315.2373)" width="30.002" height="150.011" data-original="#000000" class="active-path" data-old_color="#ffffff" fill="#ffffff"/>
	</g>
</g><g>
	<g>
		<path d="M494.479,38.736l-21.215-21.215C461.967,6.222,446.898,0,430.836,0c-16.064,0-31.133,6.222-42.43,17.52l-10.608,10.608    l106.075,106.075l10.607-10.608C505.778,112.297,512,97.228,512,81.166C512,65.102,505.778,50.034,494.479,38.736z" data-original="#000000" class="active-path" data-old_color="#ffffff" fill="#ffffff"/>
	</g>
</g><g>
	<g>
		
			<rect x="78.826" y="279.253" transform="matrix(0.7071 -0.7071 0.7071 0.7071 -140.6538 278.9409)" width="375.116" height="60.004" data-original="#000000" class="active-path" data-old_color="#ffffff" fill="#ffffff"/>
	</g>
</g><g>
	<g>
		
			<rect x="15.192" y="215.61" transform="matrix(0.7071 -0.7071 0.7071 0.7071 -114.2896 215.3044)" width="375.116" height="60.004" data-original="#000000" class="active-path" data-old_color="#ffffff" fill="#ffffff"/>
	</g>
</g><g>
	<g>
		<polygon points="32.291,382.838 0,512 129.162,479.709   " data-original="#000000" class="active-path" data-old_color="#ffffff" fill="#ffffff"/>
	</g>
</g></g> </svg>
