<?xml version="1.0"?>
<svg xmlns="http://www.w3.org/2000/svg" xmlns:xlink="http://www.w3.org/1999/xlink" version="1.1" id="Capa_1" x="0px" y="0px" viewBox="0 0 512 512" style="enable-background:new 0 0 512 512;" xml:space="preserve" width="512px" height="512px" class=""><g><g>
	<g>
		<path d="M349.415,109.764V89.219c0-26.237-21.345-47.583-47.582-47.583h-78.609c-26.237,0-47.582,21.346-47.582,47.583v20.544    h-74.773v360.6h312.365V109.764H349.415z M319.403,109.763H205.655V89.219c0-9.688,7.881-17.57,17.569-17.57h78.609    c9.688,0,17.569,7.882,17.569,17.57V109.763z" data-original="#000000" class="active-path" data-old_color="#ffffff" fill="#ffffff"/>
	</g>
</g><g>
	<g>
		<path d="M51.575,109.764C23.136,109.764,0,132.9,0,161.338v257.452c0,28.438,23.136,51.575,51.575,51.575h19.281v-360.6H51.575z" data-original="#000000" class="active-path" data-old_color="#ffffff" fill="#ffffff"/>
	</g>
</g><g>
	<g>
		<path d="M460.425,109.764h-17.179v360.6h17.179c28.438,0,51.575-23.137,51.575-51.575V161.338    C512,132.9,488.863,109.764,460.425,109.764z" data-original="#000000" class="active-path" data-old_color="#ffffff" fill="#ffffff"/>
	</g>
</g></g> </svg>
