<?xml version="1.0"?>
<svg xmlns="http://www.w3.org/2000/svg" xmlns:xlink="http://www.w3.org/1999/xlink" version="1.1" id="Capa_1" x="0px" y="0px" viewBox="0 0 512 512" style="enable-background:new 0 0 512 512;" xml:space="preserve" width="512px" height="512px" class=""><g><g>
	<g>
		<path d="M316,451H196c-24.814,0-45,20.186-45,45v16h210v-16C361,471.186,340.814,451,316,451z" data-original="#000000" class="active-path" data-old_color="#ffffff" fill="#ffffff"/>
	</g>
</g><g>
	<g>
		<path d="M87.237,30C81.024,12.578,64.53,0,45,0C20.186,0,0,20.186,0,45c0,24.814,20.186,45,45,45c19.53,0,36.024-12.578,42.237-30    h65.376c-52.106,32.558-86.717,89.515-90.802,153.51C43.971,219.491,31,236.172,31,256c0,24.814,20.186,45,45,45s45-20.186,45-45    c0-19.219-12.166-35.535-29.154-41.973C96.092,155.625,130.5,104.559,181,78.915V30H87.237z" data-original="#000000" class="active-path" data-old_color="#ffffff" fill="#ffffff"/>
	</g>
</g><g>
	<g>
		<path d="M467,90c24.814,0,45-20.186,45-45c0-24.814-20.186-45-45-45c-19.53,0-36.024,12.578-42.237,30H331v48.915    c50.5,25.642,84.908,76.709,89.154,135.112C403.166,220.465,391,236.781,391,256c0,24.814,20.186,45,45,45    c24.814,0,45-20.186,45-45c0-19.828-12.971-36.509-30.811-42.49C446.104,149.515,411.493,92.558,359.387,60h65.376    C430.976,77.422,447.47,90,467,90z" data-original="#000000" class="active-path" data-old_color="#ffffff" fill="#ffffff"/>
	</g>
</g><g>
	<g>
		<path d="M286,0h-60c-8.291,0-15,6.709-15,15c0,21.535,0,36.873,0,60c0,8.291,6.709,15,15,15h60c8.291,0,15-6.709,15-15    c0-30.141,0-29.05,0-60C301,6.709,294.291,0,286,0z" data-original="#000000" class="active-path" data-old_color="#ffffff" fill="#ffffff"/>
	</g>
</g><g>
	<g>
		<path d="M389.023,338.558L269.022,128.559c-5.332-9.346-20.713-9.346-26.045,0l-120,210c-2.827,4.937-2.607,11.03,0.542,15.762    L167.972,421H241v-62.763c-17.422-6.213-30-22.707-30-42.237c0-24.814,20.186-45,45-45c24.814,0,45,20.186,45,45    c0,19.53-12.578,36.024-30,42.237V421h73.028l44.453-66.68C391.63,349.589,391.85,343.495,389.023,338.558z" data-original="#000000" class="active-path" data-old_color="#ffffff" fill="#ffffff"/>
	</g>
</g><g>
	<g>
		<path d="M256,301c-8.276,0-15,6.724-15,15s6.724,15,15,15s15-6.724,15-15S264.276,301,256,301z" data-original="#000000" class="active-path" data-old_color="#ffffff" fill="#ffffff"/>
	</g>
</g></g> </svg>
