<?xml version="1.0" encoding="UTF-8" standalone="no"?>
<!-- Created with Inkscape (http://www.inkscape.org/) -->

<svg
   xmlns:dc="http://purl.org/dc/elements/1.1/"
   xmlns:cc="http://creativecommons.org/ns#"
   xmlns:rdf="http://www.w3.org/1999/02/22-rdf-syntax-ns#"
   xmlns:svg="http://www.w3.org/2000/svg"
   xmlns="http://www.w3.org/2000/svg"
   xmlns:sodipodi="http://sodipodi.sourceforge.net/DTD/sodipodi-0.dtd"
   xmlns:inkscape="http://www.inkscape.org/namespaces/inkscape"
   version="1.1"
   id="svg2"
   width="546.1333"
   height="546.1333"
   viewBox="0 0 546.1333 546.1333"
   sodipodi:docname="flash_clipboard.svg"
   inkscape:version="0.92.2 (5c3e80d, 2017-08-06)">
  <metadata
     id="metadata8">
    <rdf:RDF>
      <cc:Work
         rdf:about="">
        <dc:format>image/svg+xml</dc:format>
        <dc:type
           rdf:resource="http://purl.org/dc/dcmitype/StillImage" />
        <dc:title />
      </cc:Work>
    </rdf:RDF>
  </metadata>
  <defs
     id="defs6" />
  <sodipodi:namedview
     pagecolor="#ffffff"
     bordercolor="#666666"
     borderopacity="1"
     objecttolerance="10"
     gridtolerance="10"
     guidetolerance="10"
     inkscape:pageopacity="0"
     inkscape:pageshadow="2"
     inkscape:window-width="1920"
     inkscape:window-height="986"
     id="namedview4"
     showgrid="false"
     inkscape:zoom="1.1030866"
     inkscape:cx="-9.5487831"
     inkscape:cy="321.84691"
     inkscape:window-x="-11"
     inkscape:window-y="-11"
     inkscape:window-maximized="1"
     inkscape:current-layer="svg2"
     inkscape:snap-grids="true" />
  <g
     id="g981"
     transform="translate(1525.0078,453.47292)">
    <path
       style="fill:#fefefe;stroke-width:1.0666666"
       d="m -1525.0078,-180.50168 v -273.06665 h 273.0666 273.0667 v 273.06665 273.06665 h -273.0667 -273.0666 z"
       id="path1001"
       inkscape:connector-curvature="0" />
    <path
       style="fill:#ffffff;stroke-width:1.0666666;fill-opacity:1"
       d="m -1425.3121,91.000159 c -16.2299,-5.154933 -28.1756,-17.249332 -33.1168,-33.529128 -2.2259,-7.333429 -2.2259,-404.611991 0,-411.945421 5.0172,-16.52994 17.0518,-28.56455 33.5817,-33.58176 3.7771,-1.14642 13.1586,-1.49175 40.7673,-1.50064 l 35.8613,-0.0115 0.5247,-4.65469 c 1.089,-9.66175 8.1558,-19.27097 17.8861,-24.32084 4.4577,-2.31351 6.2547,-2.51458 25.2016,-2.81992 l 20.4016,-0.32879 0.5177,-4.59256 c 1.0831,-9.6094 8.1973,-19.25425 17.8791,-24.23886 6.4811,-3.33675 17.0471,-3.93087 24.7003,-1.38888 10.7665,3.57606 21.1663,17.0066 21.1663,27.33455 v 3.00999 h 19.01 c 23.4553,0 26.8628,0.91468 35.4691,9.52095 6.0575,6.05756 9.5209,13.12146 9.5209,19.41881 v 2.95974 l 38.1334,0.31691 38.1333,0.31692 8.0698,3.85394 c 10.6428,5.08272 18.1935,12.63346 23.2763,23.27625 l 3.8539,8.06981 v 205.33332 205.333319 l -3.8539,8.069813 c -5.0828,10.642783 -12.6335,18.193524 -23.2763,23.276244 l -8.0698,3.853941 -170.6667,0.167829 c -136.2037,0.133941 -171.5358,-0.108245 -174.9709,-1.199307 z"
       id="path999"
       inkscape:connector-curvature="0" />
    <path
       style="fill:#000000;stroke-width:1.0666666;fill-opacity:0.1182266"
       d="m -1424.7153,90.859999 c -15.7781,-4.253439 -29.4734,-18.113982 -33.5807,-33.9858 -1.4538,-5.618133 -1.6451,-29.501321 -1.6451,-205.375879 0,-219.69958 -0.4374,-205.53238 6.7118,-217.42496 3.9713,-6.6063 11.0214,-13.53398 17.8371,-17.52746 9.4555,-5.54019 14.3821,-6.11423 52.4752,-6.11423 h 34.9759 v -2.62666 c 0,-5.42096 4.5111,-14.78606 9.5492,-19.82414 8.134,-8.134 13.4431,-9.5492 35.8241,-9.5492 h 18.6267 v -2.62665 c 0,-5.42097 4.5111,-14.78607 9.5492,-19.82414 12.3037,-12.30379 32.1099,-12.60697 44.7137,-0.68446 4.3903,4.15289 9.7351,14.95021 9.7362,19.66858 l 8e-4,3.46667 19.4667,0.0104 c 18.6126,0.01 19.7241,0.1298 25.3333,2.73142 3.2267,1.49655 7.4851,4.25186 9.463,6.12291 4.3753,4.13869 9.735,14.94491 9.7362,19.62968 l 8e-4,3.42773 37.6,0.30557 c 36.4863,0.29652 37.7814,0.37882 43.7232,2.7784 12.3915,5.00431 22.6664,15.27914 27.6707,27.67067 l 2.4728,6.12316 v 204.26666 204.266652 l -2.4728,6.123157 c -5.0043,12.39153 -15.2792,22.666367 -27.6707,27.670676 l -6.1232,2.472832 -169.0666,0.201461 c -146.1598,0.174165 -169.858,-0.01187 -174.9075,-1.373099 z m 172.7741,-46.139922 V 28.875193 l -10.3999,-0.59808 c -34.1104,-1.9616 -66.4384,-16.728671 -91.5109,-41.801246 -20.3039,-20.303839 -33.5371,-44.726504 -39.6145,-73.110886 -2.7441,-12.815967 -2.7441,-44.784031 0,-57.600001 8.2536,-38.54799 30.0997,-70.35278 63.5095,-92.46088 19.881,-13.15566 43.7413,-21.07829 67.6159,-22.45125 l 10.3999,-0.59808 v -48.94306 -48.94306 l -82.3999,0.29818 -82.4,0.29817 -3.3259,2.3724 c -1.8293,1.30482 -4.2293,3.70482 -5.3334,5.33334 -1.9442,2.86768 -2.0174,9.04141 -2.3257,196.02758 -0.1751,106.186659 -0.016,195.62612 0.3544,198.754365 0.5582,4.71968 1.3706,6.385621 4.7732,9.788245 2.2553,2.255295 5.4558,4.303914 7.1123,4.552469 1.6564,0.248565 39.1317,0.52385 83.2784,0.611754 l 80.2666,0.159819 z m -19.2221,-84.590726 20.2888,-23.635625 v -57.901416 c 0,-35.70639 -0.3912,-58.1432 -1.0205,-58.53216 -0.8577,-0.53005 -51.2461,57.08815 -51.2461,58.5989 0,0.49926 10.0549,3.69044 31.4666,9.98676 7.26,2.13486 10.5854,3.60227 10.4122,4.59456 -0.1399,0.80187 -7.1537,20.417944 -15.5861,43.591276 -17.9866,49.429672 -17.1505,46.933331 -15.7201,46.933331 0.614,0 10.2464,-10.636032 21.4052,-23.635626 z"
       id="path997"
       inkscape:connector-curvature="0" />
    <path
       style="fill:#a3cde3;stroke-width:1.0666666"
       d="m -1421.4256,91.411263 c -18.312,-3.596277 -33.8777,-19.482014 -37.4268,-38.196499 -1.5032,-7.926186 -1.5032,-395.506704 0,-403.432894 3.633,-19.15685 19.1046,-34.62843 38.2615,-38.26145 3.1575,-0.59882 20.733,-1.08875 39.0566,-1.08875 h 33.3156 l 1.2286,-6.2448 c 2.2495,-11.43416 12.6716,-22.24897 23.7256,-24.61963 2.9123,-0.62456 12.889,-1.13557 22.1704,-1.13557 h 16.8754 l 1.2286,-6.24479 c 2.8992,-14.73639 16.8727,-25.75521 32.6614,-25.75521 6.3596,0 15.4589,4.16977 20.8383,9.54921 5.0381,5.03807 9.5492,14.40317 9.5492,19.82414 v 2.62665 h 18.6267 c 22.381,0 27.6901,1.4152 35.8241,9.5492 5.0381,5.03808 9.5492,14.40318 9.5492,19.82414 v 2.62666 h 34.9759 c 38.0931,0 43.0197,0.57404 52.4752,6.11423 6.8157,3.99348 13.8657,10.92116 17.8371,17.52746 7.1492,11.89258 6.7118,-2.27462 6.7118,217.42496 0,219.699579 0.4374,205.53238 -6.7118,217.424955 -3.9714,6.606304 -11.0214,13.533984 -17.8371,17.527466 -10.9568,6.41985 -1.9721,6.125205 -182.8752,5.997354 -90.9567,-0.06432 -167.4838,-0.530848 -170.0603,-1.036832 z m 338.6863,-33.758622 c 7.3483,-5.241589 6.7981,11.44112 6.7981,-206.154321 0,-217.59545 0.5502,-200.91273 -6.7981,-206.15433 l -3.3352,-2.37899 -164.1758,-0.27673 c -164.1145,-0.27663 -164.1774,-0.27591 -168.7358,1.93078 -3.3171,1.60578 -5.1591,3.44486 -6.7576,6.74684 -2.1943,4.53287 -2.1974,4.8171 -2.1974,200.13243 0,195.027399 0.01,195.606173 2.1875,200.111879 1.5604,3.223339 3.4715,5.155957 6.6666,6.74144 l 4.4792,2.222688 164.2666,-0.27135 164.2667,-0.271338 z m -192.6496,-30.709576 c -22.4385,-4.269963 -45.478,-14.010026 -61.8445,-26.1450334 -37.0156,-27.4453746 -58.7379,-70.4687106 -58.6857,-116.2330516 0.048,-42.113 17.4709,-80.45174 49.345,-108.58311 20.2647,-17.88518 47.8715,-30.45724 75.5514,-34.40596 11.5345,-1.64547 37.892,-0.74621 48.9482,1.67001 27.5215,6.01455 51.7902,19.33727 71.9527,39.49976 20.4831,20.48317 33.6366,44.67237 39.706,73.0193 2.7441,12.81597 2.7441,44.784034 0,57.600001 -6.0694,28.346932 -19.2229,52.536135 -39.706,73.019302 -20.1471,20.1470709 -44.2554,33.389545 -71.9527,39.523016 -11.1364,2.466112 -42.5872,3.07712 -53.3144,1.035766 z m -12.9578,-46.644755 c 12.8686,-14.331572 85.4722,-100.10258 85.4722,-100.97349 0,-1.13429 -0.9617,-1.44524 -26.1333,-8.45025 -12.9202,-3.59555 -14.8851,-4.42677 -14.5755,-6.16601 0.1968,-1.10563 5.3921,-19.93498 11.545,-41.84298 6.153,-21.90801 11.032,-39.97247 10.8422,-40.14327 -0.8369,-0.75321 -82.0761,95.73346 -81.2584,96.50954 0.5023,0.47684 8.5934,3.09761 17.98,5.82394 9.3867,2.72633 18.5637,5.42766 20.3934,6.00295 l 3.3268,1.04601 -15.6826,42.896774 c -8.6255,23.593236 -16.0116,44.216786 -16.4138,45.830119 -0.9798,3.931328 0.6705,3.735904 4.504,-0.533333 z"
       id="path995"
       inkscape:connector-curvature="0" />
    <path
       style="fill:#fda731;stroke-width:1.0666666"
       d="m -1421.4256,91.411263 c -18.312,-3.596277 -33.8777,-19.482014 -37.4268,-38.196499 -1.5032,-7.926186 -1.5032,-395.506704 0,-403.432894 3.633,-19.15685 19.1046,-34.62843 38.2615,-38.26145 3.1575,-0.59882 20.733,-1.08875 39.0566,-1.08875 h 33.3156 l 1.2286,-6.2448 c 2.2495,-11.43416 12.6716,-22.24897 23.7256,-24.61963 2.9123,-0.62456 12.889,-1.13557 22.1704,-1.13557 h 16.8754 l 1.2286,-6.24479 c 2.8992,-14.73639 16.8727,-25.75521 32.6614,-25.75521 6.3596,0 15.4589,4.16977 20.8383,9.54921 5.0381,5.03807 9.5492,14.40317 9.5492,19.82414 v 2.62665 h 18.6267 c 22.381,0 27.6901,1.4152 35.8241,9.5492 5.0381,5.03808 9.5492,14.40318 9.5492,19.82414 v 2.62666 h 34.9759 c 38.0931,0 43.0197,0.57404 52.4752,6.11423 6.8157,3.99348 13.8657,10.92116 17.8371,17.52746 7.1492,11.89258 6.7118,-2.27462 6.7118,217.42496 0,219.699579 0.4374,205.53238 -6.7118,217.424955 -3.9714,6.606304 -11.0214,13.533984 -17.8371,17.527466 -10.9568,6.41985 -1.9721,6.125205 -182.8752,5.997354 -90.9567,-0.06432 -167.4838,-0.530848 -170.0603,-1.036832 z m 338.6863,-33.758622 c 7.3483,-5.241589 6.7981,11.44112 6.7981,-206.154321 0,-217.59545 0.5502,-200.91273 -6.7981,-206.15433 l -3.3352,-2.37899 -164.1758,-0.27673 c -164.1145,-0.27663 -164.1774,-0.27591 -168.7358,1.93078 -3.3171,1.60578 -5.1591,3.44486 -6.7576,6.74684 -2.1943,4.53287 -2.1974,4.8171 -2.1974,200.13243 0,195.027399 0.01,195.606173 2.1875,200.111879 1.5604,3.223339 3.4715,5.155957 6.6666,6.74144 l 4.4792,2.222688 164.2666,-0.27135 164.2667,-0.271338 z m -185.2018,-30.30643 c -31.7819,-3.278517 -61.9588,-17.8871133 -85.4265,-41.354792 -33.9088,-33.908798 -48.0733,-79.351622 -39.8146,-127.733849 7.2868,-42.68815 37.3931,-82.37352 77.7744,-102.52017 29.79,-14.86257 66.7659,-18.92455 98.6666,-10.83899 26.3561,6.6802 48.3921,19.58211 68.0486,39.84201 26.6857,27.50475 40.7124,61.89735 40.7124,99.82456 0,39.560918 -15.2406,75.213289 -44.1364,103.248594 -31.7807,30.834259 -70.8565,44.17141 -115.8245,39.532637 z m 1.2086,-71.551494 c 13.1219,-15.383636 32.858,-38.511475 43.858,-51.395176 11,-12.883711 20,-24.196211 20,-25.138901 0,-1.31733 -4.4372,-2.92007 -19.1739,-6.92574 -10.5457,-2.86647 -19.7111,-5.54374 -20.3676,-5.94949 -0.8219,-0.50796 2.4458,-13.65457 10.4921,-42.2124 6.4272,-22.81108 11.2346,-41.64733 10.6833,-41.85835 -0.5514,-0.211 -1.6955,0.60582 -2.5426,1.81517 -0.8471,1.20935 -19.0491,22.65473 -40.449,47.6564 -21.3999,25.00167 -38.9089,46.07796 -38.9089,46.8362 0,1.37636 2.3658,2.19961 23.4666,8.16569 9.6137,2.7182 16.7871,5.05102 17.9069,5.82339 0.1688,0.11642 -6.4827,18.873578 -14.781,41.682568 -8.2983,22.808991 -15.7352,43.270899 -16.5262,45.470899 -1.3282,3.69345 -1.2881,4 0.5229,4 1.2476,0 10.6438,-10.179018 25.8194,-27.97026 z"
       id="path993"
       inkscape:connector-curvature="0" />
    <path
       style="fill:#fc9722;stroke-width:1.0666666"
       d="m -1418.8745,91.443093 c -7.4625,-1.197344 -11.7357,-2.630944 -16.9488,-5.685995 -9.7942,-5.739797 -18.2327,-16.331241 -21.6902,-27.224009 -1.7868,-5.629514 -1.8943,-17.375849 -1.8943,-207.034769 0,-189.65892 0.1075,-201.40526 1.8943,-207.03477 4.6431,-14.62826 16.4762,-26.55889 31.2625,-31.5203 4.336,-1.45491 11.5645,-1.8409 41.7765,-2.23078 l 36.5334,-0.47147 v 16.05392 16.05393 l -35.1237,0.30807 c -33.5881,0.29461 -35.2551,0.40465 -38.1333,2.51723 -1.6553,1.21504 -3.849,3.85504 -4.8747,5.86667 -1.7556,3.44297 -1.865,15.20125 -1.865,200.4575 0,185.256243 0.1094,197.014525 1.865,200.4575 1.0257,2.011627 3.2201,4.651627 4.8764,5.866667 l 3.0115,2.209152 165.5218,0.268394 c 163.6804,0.265408 165.5606,0.244747 168.9984,-1.856917 1.912,-1.168917 4.4302,-3.689696 5.596,-5.601728 2.0949,-3.435925 2.1196,-5.78129 2.1196,-201.343068 0,-195.56178 -0.025,-197.90715 -2.1196,-201.34307 -1.1658,-1.91203 -3.684,-4.43024 -5.596,-5.59601 -3.3896,-2.06663 -5.5356,-2.1197 -85.8765,-2.12359 l -82.4,-0.004 v -47.97333 -47.97333 l 3.4667,0.58403 c 6.9046,1.16321 13.0364,4.04868 17.6991,8.32881 4.9861,4.57705 9.728,13.16485 9.7735,17.7005 0.015,1.46666 0.3794,3.21285 0.8104,3.88041 0.5199,0.80522 7.2462,1.3603 19.9837,1.64914 21.7073,0.49223 26.1577,1.69532 33.9941,9.18975 4.3586,4.16834 9.1779,13.0397 9.1955,16.92679 0.027,5.92843 -1.4426,5.68724 34.6456,5.68724 18.3371,0 35.9237,0.48993 39.0812,1.08875 19.1569,3.63302 34.6285,19.1046 38.2615,38.26145 1.5032,7.92619 1.5032,395.506708 0,403.432894 -3.633,19.156853 -19.1046,34.628436 -38.2615,38.261449 -6.905,1.309525 -327.4122,1.277888 -335.5831,-0.03307 z m 150.9334,-64.096882 c -31.7819,-3.278517 -61.9588,-17.8871133 -85.4265,-41.354792 -33.9088,-33.908798 -48.0733,-79.351622 -39.8146,-127.733849 7.2868,-42.68815 37.3931,-82.37352 77.7744,-102.52017 29.79,-14.86257 66.7659,-18.92455 98.6666,-10.83899 26.3561,6.6802 48.3921,19.58211 68.0486,39.84201 26.6857,27.50475 40.7124,61.89735 40.7124,99.82456 0,39.560918 -15.2406,75.213289 -44.1364,103.248594 -31.7807,30.834259 -70.8565,44.17141 -115.8245,39.532637 z m 1.2086,-71.551494 c 13.1219,-15.383636 32.858,-38.511475 43.858,-51.395176 11,-12.883711 20,-24.196211 20,-25.138901 0,-1.31733 -4.4372,-2.92007 -19.1739,-6.92574 -10.5457,-2.86647 -19.7111,-5.54374 -20.3676,-5.94949 -0.8219,-0.50796 2.4458,-13.65457 10.4921,-42.2124 6.4272,-22.81108 11.2346,-41.64733 10.6833,-41.85835 -0.5514,-0.211 -1.6955,0.60582 -2.5426,1.81517 -0.8471,1.20935 -19.0491,22.65473 -40.449,47.6564 -21.3999,25.00167 -38.9089,46.07796 -38.9089,46.8362 0,1.37636 2.3658,2.19961 23.4666,8.16569 9.6137,2.7182 16.7871,5.05102 17.9069,5.82339 0.1688,0.11642 -6.4827,18.873578 -14.781,41.682568 -8.2983,22.808991 -15.7352,43.270899 -16.5262,45.470899 -1.3282,3.69345 -1.2881,4 0.5229,4 1.2476,0 10.6438,-10.179018 25.8194,-27.97026 z"
       id="path991"
       inkscape:connector-curvature="0" />
    <path
       style="fill:#16abe6;stroke-width:1.0666666"
       d="m -1416.7411,91.808799 c -18.3453,-1.709322 -34.1256,-14.736009 -40.6987,-33.596926 -1.886,-5.411455 -1.968,-14.030239 -1.968,-206.713553 0,-193.34277 0.076,-201.28567 1.986,-206.7679 5.4254,-15.57457 15.6184,-25.90826 31.2319,-31.66283 4.497,-1.65743 10.012,-1.97176 41.7154,-2.37764 l 36.5334,-0.46772 v 16.10472 16.10471 l -34.4,0.004 c -32.4444,0.004 -34.5977,0.12449 -37.8765,2.12358 -1.912,1.16578 -4.4302,3.68399 -5.596,5.59602 -2.0949,3.43592 -2.1196,5.78129 -2.1196,201.34307 0,195.561778 0.025,197.907143 2.1196,201.343068 1.1658,1.912032 3.684,4.430229 5.596,5.59601 3.4293,2.090869 5.7099,2.119595 168.2764,2.119595 162.5666,0 164.8472,-0.02869 168.2765,-2.119595 1.912,-1.165781 4.4302,-3.683978 5.596,-5.59601 2.0949,-3.435925 2.1196,-5.78129 2.1196,-201.343068 0,-195.56178 -0.025,-197.90715 -2.1196,-201.34307 -1.1658,-1.91203 -3.684,-4.43024 -5.596,-5.59602 -3.2788,-1.99909 -5.4321,-2.11982 -37.8765,-2.12358 l -34.4,-0.004 v -15.99999 -16 l 32.8,0.006 c 18.04,0.003 35.6258,0.46894 39.0796,1.03454 19.5789,3.20633 35.8734,19.50082 39.0797,39.07975 1.3908,8.49236 1.3908,393.40001 0,401.892372 -3.2063,19.578932 -19.5008,35.873427 -39.0797,39.079752 -5.8703,0.961344 -322.5092,1.232171 -332.6795,0.284544 z m 148.8,-64.462588 c -31.7819,-3.278517 -61.9588,-17.8871133 -85.4265,-41.354792 -33.9088,-33.908798 -48.0733,-79.351622 -39.8146,-127.733849 7.2868,-42.68815 37.3931,-82.37352 77.7744,-102.52017 29.79,-14.86257 66.7659,-18.92455 98.6666,-10.83899 26.3561,6.6802 48.3921,19.58211 68.0486,39.84201 26.6857,27.50475 40.7124,61.89735 40.7124,99.82456 0,39.560918 -15.2406,75.213289 -44.1364,103.248594 -31.7807,30.834259 -70.8565,44.17141 -115.8245,39.532637 z m 1.2086,-71.551494 c 13.1219,-15.383636 32.858,-38.511475 43.858,-51.395176 11,-12.883711 20,-24.196211 20,-25.138901 0,-1.31733 -4.4372,-2.92007 -19.1739,-6.92574 -10.5457,-2.86647 -19.7111,-5.54374 -20.3676,-5.94949 -0.8219,-0.50796 2.4458,-13.65457 10.4921,-42.2124 6.4272,-22.81108 11.2346,-41.64733 10.6833,-41.85835 -0.5514,-0.211 -1.6955,0.60582 -2.5426,1.81517 -0.8471,1.20935 -19.0491,22.65473 -40.449,47.6564 -21.3999,25.00167 -38.9089,46.07796 -38.9089,46.8362 0,1.37636 2.3658,2.19961 23.4666,8.16569 9.6137,2.7182 16.7871,5.05102 17.9069,5.82339 0.1688,0.11642 -6.4827,18.873578 -14.781,41.682568 -8.2983,22.808991 -15.7352,43.270899 -16.5262,45.470899 -1.3282,3.69345 -1.2881,4 0.5229,4 1.2476,0 10.6438,-10.179018 25.8194,-27.97026 z"
       id="path989"
       inkscape:connector-curvature="0" />
    <path
       style="fill:#1588fa;stroke-width:1.0666666"
       d="m -1416.7411,91.808799 c -18.3453,-1.709322 -34.1256,-14.736009 -40.6987,-33.596926 -1.886,-5.411455 -1.968,-14.030239 -1.968,-206.713553 0,-193.34277 0.076,-201.28567 1.986,-206.7679 5.4254,-15.57457 15.6184,-25.90826 31.2319,-31.66283 4.497,-1.65743 10.012,-1.97176 41.7154,-2.37764 l 36.5334,-0.46772 v 16.10472 16.10471 l -34.4,0.004 c -32.4444,0.004 -34.5977,0.12449 -37.8765,2.12358 -1.912,1.16578 -4.4302,3.68399 -5.596,5.59602 -2.0949,3.43592 -2.1196,5.78129 -2.1196,201.34307 0,195.561778 0.025,197.907143 2.1196,201.343068 1.1658,1.912032 3.684,4.430229 5.596,5.59601 3.4293,2.090869 5.7099,2.119595 168.2764,2.119595 162.5666,0 164.8472,-0.02869 168.2765,-2.119595 1.912,-1.165781 4.4302,-3.683978 5.596,-5.59601 2.0949,-3.435925 2.1196,-5.78129 2.1196,-201.343068 0,-195.56178 -0.025,-197.90715 -2.1196,-201.34307 -1.1658,-1.91203 -3.684,-4.43024 -5.596,-5.59602 -3.2788,-1.99909 -5.4321,-2.11982 -37.8765,-2.12358 l -34.4,-0.004 v -15.99999 -16 l 32.8,0.006 c 18.04,0.003 35.6258,0.46894 39.0796,1.03454 19.5789,3.20633 35.8734,19.50082 39.0797,39.07975 1.3908,8.49236 1.3908,393.40001 0,401.892372 -3.2063,19.578932 -19.5008,35.873427 -39.0797,39.079752 -5.8703,0.961344 -322.5092,1.232171 -332.6795,0.284544 z m 164.8281,-108.219481 0.028,-45.157672 24.9929,-29.098174 c 14.0648,-16.375042 24.7576,-29.711422 24.4547,-30.500702 -0.2984,-0.77786 -9.3677,-3.8357 -20.3626,-6.86557 -10.9034,-3.00467 -20.0106,-5.64923 -20.2382,-5.8768 -0.3164,-0.31647 19.5335,-72.24526 22.6276,-81.99399 0.6334,-1.99567 -2.2052,-2.90706 -2.9085,-0.93383 -0.4252,1.19301 -27.6215,33.13574 -28.2121,33.13574 -0.2256,0 -0.4102,-17.08095 -0.4102,-37.95767 v -37.95767 l 8.2667,0.69495 c 37.8727,3.18382 67.6483,16.65074 93.109,42.11143 21.1236,21.12364 34.9813,47.41075 40.1531,76.16795 2.3255,12.93087 2.3255,37.48447 0,50.41534 -7.9834,44.390643 -37.2731,83.2698621 -78.0621,103.619919 -16.4563,8.21024 -34.0438,12.880949 -55.2,14.659466 l -8.2667,0.694955 0.028,-45.157672 z"
       id="path987"
       inkscape:connector-curvature="0" />
    <path
       style="fill:#fd6900;stroke-width:1.0666666"
       d="m -1416.7411,91.808799 c -18.3453,-1.709322 -34.1256,-14.736009 -40.6987,-33.596926 -1.886,-5.411455 -1.968,-14.030239 -1.968,-206.713553 0,-193.34277 0.076,-201.28567 1.986,-206.7679 5.4254,-15.57457 15.6184,-25.90826 31.2319,-31.66283 4.497,-1.65743 10.012,-1.97176 41.7154,-2.37764 l 36.5334,-0.46772 v 16.10472 16.10471 l -34.4,0.004 c -32.4444,0.004 -34.5977,0.12449 -37.8765,2.12358 -1.912,1.16578 -4.4302,3.68399 -5.596,5.59602 -2.0949,3.43592 -2.1196,5.78129 -2.1196,201.34307 0,195.561778 0.025,197.907143 2.1196,201.343068 1.1658,1.912032 3.684,4.430229 5.596,5.59601 3.4293,2.090869 5.7099,2.119595 168.2764,2.119595 162.5666,0 164.8472,-0.02869 168.2765,-2.119595 1.912,-1.165781 4.4302,-3.683978 5.596,-5.59601 2.0949,-3.435925 2.1196,-5.78129 2.1196,-201.343068 0,-195.56178 -0.025,-197.90715 -2.1196,-201.34307 -1.1658,-1.91203 -3.684,-4.43024 -5.596,-5.59602 -3.2788,-1.99909 -5.4321,-2.11982 -37.8765,-2.12358 l -34.4,-0.004 v -15.99999 -16 l 32.8,0.006 c 18.04,0.003 35.6258,0.46894 39.0796,1.03454 19.5789,3.20633 35.8734,19.50082 39.0797,39.07975 1.3908,8.49236 1.3908,393.40001 0,401.892372 -3.2063,19.578932 -19.5008,35.873427 -39.0797,39.079752 -5.8703,0.961344 -322.5092,1.232171 -332.6795,0.284544 z"
       id="path985"
       inkscape:connector-curvature="0" />
    <path
       style="fill:#fd4b00;stroke-width:1.0666666"
       d="M -1251.9412,76.612843 V 60.564972 l 82.4,-0.0043 c 80.3409,-0.0043 82.4869,-0.05696 85.8765,-2.123584 1.912,-1.165781 4.4302,-3.683978 5.596,-5.59601 2.0949,-3.435925 2.1196,-5.78129 2.1196,-201.343068 0,-195.56178 -0.025,-197.90714 -2.1196,-201.34307 -1.1658,-1.91203 -3.684,-4.43023 -5.596,-5.59601 -3.2788,-1.9991 -5.4321,-2.11982 -37.8765,-2.12359 l -34.4,-0.004 v -16.09533 -16.09533 l 36.5334,0.47147 c 30.212,0.38988 37.4405,0.77587 41.7765,2.23078 14.7863,4.96141 26.6194,16.89204 31.2625,31.5203 1.7868,5.62951 1.8943,17.37585 1.8943,207.03477 0,189.658917 -0.1075,201.405252 -1.8943,207.034766 -4.6332,14.596917 -16.3176,26.399241 -31.2625,31.577833 -4.7302,1.639083 -13.5143,1.852704 -89.7765,2.183317 l -84.5334,0.366464 z"
       id="path983"
       inkscape:connector-curvature="0" />
  </g>
</svg>
