<?xml version="1.0" encoding="iso-8859-1"?>
<!-- Generator: Adobe Illustrator 18.0.0, SVG Export Plug-In . SVG Version: 6.00 Build 0)  -->
<!DOCTYPE svg PUBLIC "-//W3C//DTD SVG 1.1//EN" "http://www.w3.org/Graphics/SVG/1.1/DTD/svg11.dtd">
<svg xmlns="http://www.w3.org/2000/svg" xmlns:xlink="http://www.w3.org/1999/xlink" version="1.1" id="Capa_1" x="0px" y="0px" viewBox="0 0 300 300" style="enable-background:new 0 0 300 300;" xml:space="preserve" width="512px" height="512px">
<g>
	<path d="M282.466,205.54c-11.915-53.083-36.88-80.594-50.858-92.363c-0.751-1.124-1.523-2.229-2.31-3.321   c2.268-7.774,3.503-16.009,3.503-24.543c0-47.117-37.16-85.313-83-85.313c-45.84,0-83,38.195-83,85.313   c0,8.534,1.234,16.769,3.503,24.543c-0.966,1.34-1.904,2.704-2.815,4.092c-14.128,12.179-38.292,39.637-49.954,91.593   c-0.518,2.306,0.315,4.705,2.149,6.195c1.834,1.491,4.354,1.816,6.505,0.837c6.545-2.98,15.122-7.532,23.137-13.741   C53.56,227.683,67.623,252.863,87.576,270H72.589c-8.284,0-15,6.716-15,15s6.716,15,15,15h154c8.284,0,15-6.716,15-15   s-6.716-15-15-15h-14.564c20.016-17.189,34.106-42.475,38.292-71.439c8.116,6.352,16.854,10.986,23.495,14.012   c2.15,0.98,4.671,0.654,6.505-0.837C282.15,210.245,282.983,207.846,282.466,205.54z M149.801,259.171   c-39.121,0-70.836-35.222-70.836-78.671c0-22.301,8.356-50.335,21.779-72.345c-6.942-6.117-11.327-15.068-11.327-25.049   c0-18.438,14.946-33.384,33.384-33.384c11.101,0,20.931,5.423,27,13.759c6.069-8.336,15.899-13.759,27-13.759   c18.438,0,33.384,14.946,33.384,33.384c0,9.98-4.385,18.932-11.327,25.049c13.423,22.01,21.779,50.044,21.779,72.345   C220.637,223.949,188.922,259.171,149.801,259.171z" fill="#FFFFFF"/>
	<path d="M169.256,97.309l-18.612-5.716c-0.549-0.169-1.137-0.169-1.686,0l-18.612,5.716c-0.891,0.273-1.594,0.963-1.885,1.848   c-0.291,0.885-0.134,1.855,0.421,2.604l18.612,25.126c0.542,0.73,1.397,1.162,2.307,1.162c0.909,0,1.765-0.432,2.307-1.162   l18.612-25.126c0.555-0.749,0.712-1.72,0.421-2.604C170.85,98.271,170.146,97.582,169.256,97.309z" fill="#FFFFFF"/>
	<circle cx="131.042" cy="83.567" r="7.899" fill="#FFFFFF"/>
	<circle cx="168.56" cy="83.567" r="7.899" fill="#FFFFFF"/>
</g>
<g>
</g>
<g>
</g>
<g>
</g>
<g>
</g>
<g>
</g>
<g>
</g>
<g>
</g>
<g>
</g>
<g>
</g>
<g>
</g>
<g>
</g>
<g>
</g>
<g>
</g>
<g>
</g>
<g>
</g>
</svg>
